<svg xmlns="http://www.w3.org/2000/svg" width="400" height="120" viewBox="0 0 400 120" fill="none" role="img" aria-label="customgpt-agent">
  <rect x="0.5" y="0.5" width="399" height="119" rx="10" fill="#161b22" stroke="#00f0ff"/>
  <g transform="translate(20,20)" fill="#ff2bd6"><path d="M2 2.5A2.5 2.5 0 0 1 4.5 0h8.75a.75.75 0 0 1 .75.75v12.5a.75.75 0 0 1-.75.75h-2.5a.75.75 0 0 1 0-1.5h1.75v-2h-8a1 1 0 0 0-.714 1.7.75.75 0 1 1-1.072 1.05A2.5 2.5 0 0 1 2 11.5Zm10.5-1H4.5a1 1 0 0 0-1 1v6.708A2.5 2.5 0 0 1 4.5 9h8Z"/></g>
  <text x="44" y="32" font-family="'Segoe UI',Ubuntu,'Helvetica Neue',Sans-Serif" font-size="17" font-weight="700" fill="#00f0ff">customgpt-agent</text>
  <text x="20" y="66" font-family="'Segoe UI',Ubuntu,'Helvetica Neue',Sans-Serif" font-size="13" fill="#9aa4b2">enterprise AI agent — Claude + CustomGPT</text>
  <rect x="20" y="90" width="64" height="3" rx="1.5" fill="#6e1bff"/>
  <text x="92" y="96" font-family="'Segoe UI',Ubuntu,Sans-Serif" font-size="11" fill="#ff2bd6">adorosario</text>
</svg>
