<svg xmlns="http://www.w3.org/2000/svg" width="400" height="120" viewBox="0 0 400 120" fill="none" role="img" aria-label="Work history">
  <rect x="0.5" y="0.5" width="399" height="119" rx="10" fill="#161b22" stroke="#00f0ff"/>
  <g transform="translate(20,20)" fill="#ff2bd6">
    <path d="M8 0a8 8 0 1 0 0 16A8 8 0 0 0 8 0ZM4.5 12.6a5.5 5.5 0 0 1 7 0 6.47 6.47 0 0 1-7 0Zm8.13-1.1a7 7 0 0 0-9.26 0 6.5 6.5 0 1 1 9.26 0ZM8 3.5a2.5 2.5 0 1 0 0 5 2.5 2.5 0 0 0 0-5Z"/>
  </g>
  <text x="44" y="32" font-family="'Segoe UI',Ubuntu,'Helvetica Neue',Sans-Serif" font-size="17" font-weight="700" fill="#00f0ff">Work history</text>
  <text x="20" y="66" font-family="'Segoe UI',Ubuntu,'Helvetica Neue',Sans-Serif" font-size="13" fill="#9aa4b2">product manager · applied cs researcher</text>
  <rect x="20" y="90" width="64" height="3" rx="1.5" fill="#6e1bff"/>
  <text x="92" y="96" font-family="'Segoe UI',Ubuntu,Sans-Serif" font-size="11" fill="#ff2bd6">LinkedIn</text>
</svg>
